<svg xmlns="http://www.w3.org/2000/svg" viewBox="73 248.3 100 100"><style type="text/css">.st0{fill:#FFFFFF;}</style><path class="st0" d="M144.8 314.9c0.5-0.6 0.7-1.2 0.7-1.9 0-0.5-0.1-0.9-0.3-1.3 -0.3-0.6-0.7-1.1-1.2-1.5 -0.6-0.4-1.2-0.6-1.8-0.6 -0.8 0-1.7 0.4-2.7 1.1V310c0-1.1-0.3-2-0.9-2.6 -0.6-0.7-1.4-1-2.5-1 -1 0-1.8 0.3-2.5 1 -0.6 0.6-1 1.5-1 2.4v1l-0.3-0.2c-0.8-0.6-1.6-0.9-2.5-0.9s-1.7 0.3-2.4 1.1c-0.7 0.7-1 1.5-1 2.4 0 1.4 0.9 2.4 2.7 3.2l-0.3 0.1c-1.6 0.7-2.4 1.7-2.4 3.1 0 0.5 0.1 0.9 0.3 1.3 0.2 0.6 0.7 1.1 1.2 1.5 0.6 0.4 1.2 0.6 1.8 0.6 0.8 0 1.8-0.4 2.8-1.1v0.8c0 1.1 0.3 1.9 0.9 2.6 0.6 0.7 1.4 1 2.5 1 1 0 1.8-0.3 2.5-0.9 0.6-0.6 1-1.4 1-2.5v-1l0.3 0.2c0.7 0.6 1.5 0.8 2.5 0.8 0.9 0 1.7-0.4 2.3-1.1 0.7-0.7 1-1.5 1-2.4 0-1.4-0.9-2.5-2.7-3.2l0.3-0.1C143.8 315.9 144.4 315.5 144.8 314.9zM144.4 319.5c0 0.6-0.2 1.2-0.7 1.7s-1 0.7-1.5 0.7c-1.4 0-2.9-1.1-4.5-3.4l-0.5 0.3c0.8 1.6 1.2 2.9 1.2 4 0 0.7-0.2 1.3-0.6 1.8s-1 0.7-1.7 0.7c-0.8 0-1.3-0.2-1.7-0.7 -0.4-0.4-0.6-1-0.6-1.8 0-1.1 0.4-2.4 1.2-4l-0.5-0.3c-1.6 2.3-3.1 3.4-4.5 3.4 -0.6 0-1.1-0.3-1.6-0.8 -0.4-0.5-0.7-1-0.7-1.6 0-1.7 1.8-2.6 5.5-2.9V316c-3.7-0.3-5.5-1.3-5.5-2.9 0-0.6 0.2-1.2 0.7-1.7s1-0.7 1.5-0.7c1.4 0 2.9 1.1 4.5 3.4l0.5-0.3c-0.8-1.6-1.2-2.9-1.2-4 0-0.7 0.2-1.3 0.6-1.8 0.4-0.4 1-0.7 1.7-0.7 1.6 0 2.3 0.8 2.3 2.5 0 1.1-0.4 2.4-1.2 4l0.5 0.3c1.6-2.3 3.1-3.4 4.5-3.4 0.6 0 1.1 0.2 1.6 0.8 0.4 0.5 0.7 1 0.7 1.6 0 1.7-1.8 2.7-5.5 2.9v0.6C142.6 316.9 144.4 317.9 144.4 319.5L144.4 319.5zM90.7 294.3l-2.6-6.8h-2.4v9.7h1.9v-6.3l2.4 6.3h1.4l2.3-6.3v6.3h1.9v-9.7h-2.4L90.7 294.3 90.7 294.3zM101.1 287.5h-2v9.7h2V287.5zM134 295.4h-4.6v-2.3h4.2v-1.8h-4.2v-2.1h4.6v-1.8h-6.6v9.7h6.6V295.4zM143.7 295.4h-4.5v-7.9h-2v9.7h6.5V295.4zM108.6 297.3c2.3 0 3.7-1.3 4.1-3.3h-2c-0.3 0.9-0.9 1.5-2 1.5 -1.5 0-2.5-1.4-2.5-3.2s0.9-3.2 2.5-3.2c1.1 0 1.7 0.6 2 1.5h2c-0.4-1.9-1.8-3.3-4.1-3.3 -2.6 0-4.5 2-4.5 5S106 297.3 108.6 297.3zM146.7 297.1h2v-9.7h-2V297.1zM158.3 287.5v6.1l-4.3-6.1h-1.9v9.7h1.9v-6.5l4.6 6.5h1.6v-9.7H158.3L158.3 287.5zM122 291.3h-4.4v-3.8h-2v9.7h2v-4.1h4.4v4.1h2v-9.7h-2V291.3zM123 248.3c-27.6 0-50 22.4-50 50s22.4 50 50 50 50-22.4 50-50S150.6 248.3 123 248.3zM123 346.3c-26.5 0-48-21.5-48-48s21.5-48 48-48 48 21.5 48 48S149.5 346.3 123 346.3zM118.8 314.9c0.5-0.6 0.7-1.2 0.7-1.9 0-0.5-0.1-0.9-0.3-1.3 -0.3-0.6-0.7-1.1-1.2-1.5 -0.6-0.4-1.2-0.6-1.8-0.6 -0.8 0-1.7 0.4-2.7 1.1V310c0-1.1-0.3-2-0.9-2.6 -0.6-0.7-1.4-1-2.5-1 -1 0-1.8 0.3-2.5 1 -0.6 0.6-1 1.5-1 2.4v1l-0.3-0.2c-0.8-0.6-1.6-0.9-2.5-0.9s-1.7 0.3-2.4 1.1c-0.7 0.7-1 1.5-1 2.4 0 1.4 0.9 2.4 2.7 3.2l-0.3 0.1c-1.6 0.7-2.4 1.7-2.4 3.1 0 0.5 0.1 0.9 0.3 1.3 0.2 0.6 0.7 1.1 1.2 1.5 0.6 0.4 1.2 0.6 1.8 0.6 0.8 0 1.8-0.4 2.8-1.1v0.8c0 1.1 0.3 1.9 0.9 2.6 0.6 0.7 1.4 1 2.5 1 1 0 1.8-0.3 2.5-0.9 0.6-0.6 1-1.4 1-2.5v-1l0.3 0.2c0.7 0.6 1.5 0.8 2.5 0.8 0.9 0 1.7-0.4 2.3-1.1 0.7-0.7 1-1.5 1-2.4 0-1.4-0.9-2.5-2.7-3.2l0.3-0.1C117.8 315.9 118.4 315.5 118.8 314.9zM118.4 319.5c0 0.6-0.2 1.2-0.7 1.7s-1 0.7-1.5 0.7c-1.4 0-2.9-1.1-4.5-3.4l-0.5 0.3c0.8 1.6 1.2 2.9 1.2 4 0 0.7-0.2 1.3-0.6 1.8s-1 0.7-1.7 0.7c-0.8 0-1.3-0.2-1.7-0.7 -0.4-0.4-0.6-1-0.6-1.8 0-1.1 0.4-2.4 1.2-4l-0.5-0.3c-1.6 2.3-3.1 3.4-4.5 3.4 -0.6 0-1.1-0.3-1.6-0.8 -0.4-0.5-0.7-1-0.7-1.6 0-1.7 1.8-2.6 5.5-2.9V316c-3.7-0.3-5.5-1.3-5.5-2.9 0-0.6 0.2-1.2 0.7-1.7s1-0.7 1.5-0.7c1.4 0 2.9 1.1 4.5 3.4l0.5-0.3c-0.8-1.6-1.2-2.9-1.2-4 0-0.7 0.2-1.3 0.6-1.8 0.4-0.4 1-0.7 1.7-0.7 1.6 0 2.3 0.8 2.3 2.5 0 1.1-0.4 2.4-1.2 4l0.5 0.3c1.6-2.3 3.1-3.4 4.5-3.4 0.6 0 1.1 0.2 1.6 0.8 0.4 0.5 0.7 1 0.7 1.6 0 1.7-1.8 2.7-5.5 2.9v0.6C116.6 316.9 118.4 317.9 118.4 319.5L118.4 319.5z"/></svg>